<?xml version="1.0" encoding="UTF-8"?>
<svg version="1.1" xmlns="http://www.w3.org/2000/svg" width="500" height="500">
<path d="M0 0 C7.08626073 -0.09522671 14.16707777 -0.06981909 21.25292969 0.04589844 C22.04376953 0.0584668 22.83460938 0.07103516 23.64941406 0.08398438 C46.67792276 0.58908595 69.01313565 6.08691448 89.25292969 17.04589844 C90.07277344 17.46742187 90.89261719 17.88894531 91.73730469 18.32324219 C108.24258023 27.01485005 108.24258023 27.01485005 110.25292969 33.04589844 C111.57631601 33.73209875 112.91242916 34.39376305 114.25292969 35.04589844 C118.87145348 38.5644674 122.3021941 42.28593298 125.69042969 46.98339844 C126.16561035 47.64090088 126.64079102 48.29840332 127.13037109 48.97583008 C136.77346337 62.63878623 142.09141661 77.70502875 145.06542969 94.04589844 C145.25153809 95.06840698 145.25153809 95.06840698 145.44140625 96.11157227 C146.23812978 100.91717826 146.25292969 105.05568743 146.25292969 110.04589844 C113.91292969 110.04589844 81.57292969 110.04589844 48.25292969 110.04589844 C47.92292969 107.07589844 47.59292969 104.10589844 47.25292969 101.04589844 C46.50565565 98.46363155 46.50565565 98.46363155 45.44042969 96.35839844 C45.08851563 95.62105469 44.73660156 94.88371094 44.37402344 94.12402344 C42.84653832 91.29258761 41.06627416 88.70115284 39.25292969 86.04589844 C39.25292969 85.38589844 39.25292969 84.72589844 39.25292969 84.04589844 C38.59292969 84.04589844 37.93292969 84.04589844 37.25292969 84.04589844 C37.25292969 83.38589844 37.25292969 82.72589844 37.25292969 82.04589844 C36.17205078 81.63017578 36.17205078 81.63017578 35.06933594 81.20605469 C31.4847552 79.72946595 28.09373065 77.95244685 24.65527344 76.16699219 C18.97802536 73.51760975 13.28952207 73.79189457 7.12792969 73.73339844 C6.13277344 73.70439453 5.13761719 73.67539063 4.11230469 73.64550781 C-5.29805903 73.56565486 -13.30915204 75.88300674 -20.28222656 82.41308594 C-26.40544352 89.23843177 -28.09882363 97.23624056 -27.95019531 106.17871094 C-27.63950005 110.56429403 -26.78357199 114.77958351 -25.74707031 119.04589844 C-25.08707031 119.04589844 -24.42707031 119.04589844 -23.74707031 119.04589844 C-23.08707031 120.69589844 -22.42707031 122.34589844 -21.74707031 124.04589844 C-21.08707031 124.04589844 -20.42707031 124.04589844 -19.74707031 124.04589844 C-18.0594418 125.69133624 -16.39303542 127.35878421 -14.74707031 129.04589844 C-14.08707031 129.37589844 -13.42707031 129.70589844 -12.74707031 130.04589844 C-12.74707031 130.70589844 -12.74707031 131.36589844 -12.74707031 132.04589844 C-12.05226563 132.14515625 -11.35746094 132.24441406 -10.64160156 132.34667969 C-7.2183072 133.17362934 -4.54346446 134.57848769 -1.43457031 136.23339844 C12.23086747 143.25035032 26.95527044 147.68439194 41.51855469 152.44360352 C47.80670382 154.51037499 54.00335317 156.66498772 60.125 159.18359375 C63.02490103 160.35872574 65.97701854 161.35601459 68.94042969 162.35839844 C75.9924389 164.8567809 82.68093465 167.87130899 89.39599609 171.14746094 C91.21857111 172.02927478 93.05206951 172.88337544 94.88964844 173.73339844 C103.19743295 177.68165246 110.10729888 182.27526022 117.25292969 188.04589844 C117.93871094 188.57828125 118.62449219 189.11066406 119.33105469 189.65917969 C120.68505216 190.73162161 121.9796699 191.87874363 123.25292969 193.04589844 C123.25292969 193.70589844 123.25292969 194.36589844 123.25292969 195.04589844 C123.91292969 195.04589844 124.57292969 195.04589844 125.25292969 195.04589844 C125.25292969 195.70589844 125.25292969 196.36589844 125.25292969 197.04589844 C125.91292969 197.04589844 126.57292969 197.04589844 127.25292969 197.04589844 C145.19557438 215.28634636 151.41025505 239.04591569 151.25292969 264.04589844 C150.58369985 278.78389308 147.86732115 292.79821724 141.25292969 306.04589844 C140.60710937 307.47869141 140.60710937 307.47869141 139.94824219 308.94042969 C136.0981347 317.23882521 130.9862791 323.99747383 125.25292969 331.04589844 C124.60066406 331.90441406 123.94839844 332.76292969 123.27636719 333.64746094 C119.52691611 338.09179098 114.8054556 341.46172748 110.25292969 345.04589844 C109.06957031 345.99335937 109.06957031 345.99335937 107.86230469 346.95996094 C107.16621094 347.50394531 106.47011719 348.04792969 105.75292969 348.60839844 C105.14449219 349.0840625 104.53605469 349.55972656 103.90917969 350.04980469 C102.25292969 351.04589844 102.25292969 351.04589844 99.25292969 351.04589844 C99.25292969 351.70589844 99.25292969 352.36589844 99.25292969 353.04589844 C56.16339624 375.62206357 7.21854688 379.06709348 -39.74707031 366.04589844 C-42.45460596 365.12691628 -45.08629566 364.09953148 -47.74707031 363.04589844 C-48.72289062 362.71589844 -49.69871094 362.38589844 -50.70410156 362.04589844 C-57.74479744 359.58021014 -64.09491421 356.37181192 -70.55957031 352.67089844 C-71.34759033 352.22488281 -72.13561035 351.77886719 -72.94750977 351.31933594 C-78.44405995 348.0974398 -83.05663844 344.33618969 -87.74707031 340.04589844 C-89.05598788 338.93748738 -90.36807855 337.83280269 -91.68457031 336.73339844 C-110.6648765 319.98169963 -122.72686131 295.29851098 -124.74707031 270.04589844 C-124.74707031 266.41589844 -124.74707031 262.78589844 -124.74707031 259.04589844 C-93.06707031 259.04589844 -61.38707031 259.04589844 -28.74707031 259.04589844 C-27.75707031 263.66589844 -26.76707031 268.28589844 -25.74707031 273.04589844 C-21.50273229 283.18515039 -15.76203918 291.11098624 -5.74707031 296.04589844 C1.34796955 298.80324238 7.99561585 299.56268011 15.56542969 299.48339844 C16.5714624 299.47655029 17.57749512 299.46970215 18.61401367 299.46264648 C29.22683173 299.23429429 38.39914485 297.68741882 46.25292969 290.04589844 C46.91292969 290.04589844 47.57292969 290.04589844 48.25292969 290.04589844 C48.25292969 289.38589844 48.25292969 288.72589844 48.25292969 288.04589844 C48.91292969 288.04589844 49.57292969 288.04589844 50.25292969 288.04589844 C50.92854716 286.38284004 51.5922625 284.71495239 52.25292969 283.04589844 C52.78917969 281.93214844 53.32542969 280.81839844 53.87792969 279.67089844 C56.73926184 271.92329137 56.44862144 262.36000984 53.75292969 254.60839844 C51.195491 249.10714543 46.74347005 243.79116862 41.25292969 241.04589844 C41.25292969 240.38589844 41.25292969 239.72589844 41.25292969 239.04589844 C40.40730469 238.79195312 39.56167969 238.53800781 38.69042969 238.27636719 C35.67023538 237.19527491 32.96955364 235.9029971 30.15332031 234.38061523 C20.40693907 229.13805379 10.24887364 225.97453959 -0.31835938 222.80932617 C-3.17896086 221.91014032 -5.96192851 220.86304535 -8.75878906 219.78491211 C-12.45608051 218.41068554 -16.23042251 217.27558809 -19.99707031 216.10839844 C-21.68084182 215.58031903 -23.36443603 215.05167401 -25.04785156 214.52246094 C-25.85561035 214.26883789 -26.66336914 214.01521484 -27.49560547 213.75390625 C-36.46038293 210.93479384 -45.11850165 207.77187127 -53.74707031 204.04589844 C-55.04368098 203.50229876 -56.34057012 202.95936296 -57.63769531 202.41699219 C-69.70581881 197.3216264 -80.57774616 191.39103455 -90.74707031 183.04589844 C-91.65457031 182.36527344 -92.56207031 181.68464844 -93.49707031 180.98339844 C-96.27265129 178.59331482 -98.43984431 175.88556121 -100.74707031 173.04589844 C-101.70806641 172.10230469 -101.70806641 172.10230469 -102.68847656 171.13964844 C-118.92951488 154.62124894 -124.15216684 131.32049276 -124.12207031 108.98339844 C-124.12152649 108.30092041 -124.12098267 107.61844238 -124.12042236 106.9152832 C-124.08014104 95.90075947 -123.27833031 85.54423897 -119.74707031 75.04589844 C-119.52212891 74.376875 -119.2971875 73.70785156 -119.06542969 73.01855469 C-109.75127569 46.28205753 -90.56543824 27.79147594 -65.74707031 15.04589844 C-64.97363281 14.61664063 -64.20019531 14.18738281 -63.40332031 13.74511719 C-44.37378954 3.50088646 -21.31781083 0.35618098 0 0 Z " fill="#1E4FD6" transform="translate(236.7470703125,61.9541015625)"/>
<path d="M0 0 C0.66 0 1.32 0 2 0 C2.34123581 1.99866686 2.6725678 3.99902542 3 6 C3.185625 7.11375 3.37125 8.2275 3.5625 9.375 C4 13 4 13 4 21 C-28.34 21 -60.68 21 -94 21 C-94.33 18.03 -94.66 15.06 -95 12 C-95.31148575 10.46985469 -95.65163494 8.94400521 -96.0625 7.4375 C-96.5265625 5.7359375 -96.5265625 5.7359375 -97 4 C-96.01 4.33 -95.02 4.66 -94 5 C-93.66179834 6.5823006 -93.32964061 8.16589375 -93 9.75 C-92.814375 10.63171875 -92.62875 11.5134375 -92.4375 12.421875 C-92 15 -92 15 -92 19 C-45.47 19.495 -45.47 19.495 2 20 C0.68639119 14.71093963 0.68639119 14.71093963 -0.6875 9.4375 C-1.1073128 6.16296013 -0.57075114 3.23425646 0 0 Z " fill="#476BC3" transform="translate(379,151)"/>
<path d="M0 0 C0.495 0.99 0.495 0.99 1 2 C-5.17065139 2.02495131 -11.3412726 2.04297757 -17.51196289 2.05493164 C-19.6057181 2.05992175 -21.6994699 2.06671621 -23.79321289 2.07543945 C-46.10138656 2.16597155 -46.10138656 2.16597155 -57 1 C-57 0.67 -57 0.34 -57 0 C-38.01657625 -1.56334078 -18.98689012 -1.44465468 0 0 Z " fill="#496BCD" transform="translate(275,63)"/>
<path d="M0 0 C1.06863281 0.01804687 2.13726562 0.03609375 3.23828125 0.0546875 C4.04652344 0.07789063 4.85476563 0.10109375 5.6875 0.125 C5.6875 0.455 5.6875 0.785 5.6875 1.125 C-13.85909288 5.97928631 -33.25510412 6.44690882 -53.3125 6.125 C-53.3125 5.795 -53.3125 5.465 -53.3125 5.125 C-52.12398437 5.07601563 -50.93546875 5.02703125 -49.7109375 4.9765625 C-40.25016739 4.56077868 -30.810714 3.99745294 -21.375 3.1875 C-19.9825708 3.07559326 -19.9825708 3.07559326 -18.56201172 2.96142578 C-12.07584494 2.37741997 -6.50084564 -0.14287573 0 0 Z " fill="#6988D2" transform="translate(295.3125,428.875)"/>
<path d="M0 0 C0.7425 1.0209375 0.7425 1.0209375 1.5 2.0625 C8.29279621 10.04403555 16.46297196 16.24070935 27 18 C27 18.66 27 19.32 27 20 C21.17728663 20.59720137 17.0790596 18.528243 12 16 C12 15.34 12 14.68 12 14 C10.02 13.34 8.04 12.68 6 12 C6 11.34 6 10.68 6 10 C5.34 10 4.68 10 4 10 C4 9.34 4 8.68 4 8 C3.01 7.67 2.02 7.34 1 7 C0.67 4.69 0.34 2.38 0 0 Z " fill="#6E88D5" transform="translate(214,343)"/>
<path d="M0 0 C-1.34710422 4.04131267 -3.38428334 4.90288434 -7 7 C-7.99 7 -8.98 7 -10 7 C-10 7.66 -10 8.32 -10 9 C-17.87746171 14.05908096 -17.87746171 14.05908096 -22.5625 13.8125 C-23.366875 13.544375 -24.17125 13.27625 -25 13 C-25 12.67 -25 12.34 -25 12 C-22.36 11.67 -19.72 11.34 -17 11 C-17.33 9.68 -17.66 8.36 -18 7 C-14.5647952 4.70986347 -13.014669 4.82157027 -9 5 C-9 4.34 -9 3.68 -9 3 C-7.35 3 -5.7 3 -4 3 C-4 2.34 -4 1.68 -4 1 C-2 0 -2 0 0 0 Z " fill="#3F66D2" transform="translate(346,406)"/>
<path d="M0 0 C0.66 0.33 1.32 0.66 2 1 C1.34 2.65 0.68 4.3 0 6 C-1.98 6 -3.96 6 -6 6 C-6.268125 6.763125 -6.53625 7.52625 -6.8125 8.3125 C-7.96131822 10.91245703 -8.67278944 12.38885423 -11 14 C-13.1875 13.6875 -13.1875 13.6875 -15 13 C-14.8359375 11.2265625 -14.8359375 11.2265625 -14 9 C-11.6015625 7.1484375 -11.6015625 7.1484375 -8.625 5.375 C-7.64789063 4.78460938 -6.67078125 4.19421875 -5.6640625 3.5859375 C-4.78492188 3.06257813 -3.90578125 2.53921875 -3 2 C-2.01 1.34 -1.02 0.68 0 0 Z " fill="#3862CE" transform="translate(165,80)"/>
<path d="M0 0 C1.32 0 2.64 0 4 0 C4 0.66 4 1.32 4 2 C5.65 2 7.3 2 9 2 C9 2.66 9 3.32 9 4 C9.66 4 10.32 4 11 4 C11 4.66 11 5.32 11 6 C12.11375 6.12375 13.2275 6.2475 14.375 6.375 C18 7 18 7 20 9 C21.31747324 9.69748583 22.64914193 10.36959957 24 11 C21.66433002 11.8147307 20.41076735 12.13887679 18.03295898 11.33496094 C17.36079346 10.97176758 16.68862793 10.60857422 15.99609375 10.234375 C15.25552734 9.83863281 14.51496094 9.44289063 13.75195312 9.03515625 C12.60629883 8.39900391 12.60629883 8.39900391 11.4375 7.75 C10.66986328 7.34136719 9.90222656 6.93273437 9.11132812 6.51171875 C5.61995382 4.61840156 2.72101744 2.9338197 0 0 Z " fill="#5A79D2" transform="translate(155,251)"/>
<path d="M0 0 C0.99 0.33 1.98 0.66 3 1 C3.33820166 2.5823006 3.67035939 4.16589375 4 5.75 C4.185625 6.63171875 4.37125 7.5134375 4.5625 8.421875 C5 11 5 11 5 15 C10.94 15 16.88 15 23 15 C23 15.33 23 15.66 23 16 C16.4 16.33 9.8 16.66 3 17 C2.67 14.03 2.34 11.06 2 8 C1.68851425 6.46985469 1.34836506 4.94400521 0.9375 3.4375 C0.4734375 1.7359375 0.4734375 1.7359375 0 0 Z " fill="#5376D0" transform="translate(282,155)"/>
<path d="M0 0 C2.97 0 5.94 0 9 0 C9 0.33 9 0.66 9 1 C6.69 1 4.38 1 2 1 C2.0721875 1.845625 2.144375 2.69125 2.21875 3.5625 C2.72343046 9.73081678 3.12134502 15.81140412 3 22 C-1.17137842 15.74293238 -0.10252319 7.27914625 0 0 Z " fill="#617FD1" transform="translate(112,322)"/>
<path d="M0 0 C0.99 0 1.98 0 3 0 C3.78688445 2.77723925 4.11949924 5.22610077 4.09765625 8.109375 C4.09282227 9.24052734 4.09282227 9.24052734 4.08789062 10.39453125 C4.07951172 11.17183594 4.07113281 11.94914062 4.0625 12.75 C4.05798828 13.54277344 4.05347656 14.33554687 4.04882812 15.15234375 C4.03708565 17.10159508 4.01915146 19.05080738 4 21 C3.34 21 2.68 21 2 21 C1.93941406 19.98679687 1.87882812 18.97359375 1.81640625 17.9296875 C1.73193296 16.57811486 1.64728843 15.22655291 1.5625 13.875 C1.50352539 12.87726563 1.50352539 12.87726563 1.44335938 11.859375 C1.187848 7.84981183 0.73217587 3.95005804 0 0 Z " fill="#5B7AD2" transform="translate(291,316)"/>
<path d="M0 0 C0 0.66 0 1.32 0 2 C-0.598125 2.268125 -1.19625 2.53625 -1.8125 2.8125 C-3.97224808 3.98493467 -5.35790256 5.19369282 -7 7 C-7.99 6.67 -8.98 6.34 -10 6 C-10.969375 6.495 -11.93875 6.99 -12.9375 7.5 C-16.24454193 9.11977564 -16.72049139 9.07664214 -20 8 C-17.75243216 6.84917315 -15.50218252 5.70423142 -13.25 4.5625 C-12.29867187 4.07426758 -12.29867187 4.07426758 -11.328125 3.57617188 C-4.24951675 0 -4.24951675 0 0 0 Z " fill="#5777D1" transform="translate(187,71)"/>
<path d="M0 0 C9.24645527 5.59835009 9.24645527 5.59835009 13 9 C13 9.66 13 10.32 13 11 C13.99 11.33 14.98 11.66 16 12 C15.01 12.495 15.01 12.495 14 13 C9.125 9.25 9.125 9.25 8 7 C6.02111039 6.27306096 4.02045442 5.60183749 2 5 C2 4.34 2 3.68 2 3 C1.34 3 0.68 3 0 3 C0 2.01 0 1.02 0 0 Z " fill="#6480D2" transform="translate(334,84)"/>
<path d="M0 0 C3 2 3 2 4 3 C4.04080783 4.99958364 4.04254356 7.00045254 4 9 C4.66 9 5.32 9 6 9 C6 11.31 6 13.62 6 16 C1.96190932 11.38503922 0 6.07147123 0 0 Z " fill="#5776CB" transform="translate(117,352)"/>
<path d="M0 0 C4.3177458 0.50797009 8.03302114 1.19682779 12 3 C12 3.33 12 3.66 12 4 C10.37585622 4.19477739 8.75063577 4.38059458 7.125 4.5625 C6.22007812 4.66691406 5.31515625 4.77132812 4.3828125 4.87890625 C2 5 2 5 0 4 C0 2.68 0 1.36 0 0 Z " fill="#5074D4" transform="translate(298,223)"/>
<path d="M0 0 C3.79303725 1.00193437 6.71536341 1.81024227 10 4 C9.01 4 8.02 4 7 4 C6.67 4.99 6.34 5.98 6 7 C4.35 7 2.7 7 1 7 C1.66 5.68 2.32 4.36 3 3 C2.01 2.67 1.02 2.34 0 2 C0 1.34 0 0.68 0 0 Z " fill="#3C66D0" transform="translate(306,71)"/>
<path d="M0 0 C5.8022175 -0.36263859 9.63999211 0.74315457 15 3 C15 3.66 15 4.32 15 5 C15.66 5.33 16.32 5.66 17 6 C10.81839396 5.46246904 5.673142 3.45417612 0 1 C0 0.67 0 0.34 0 0 Z " fill="#5B7ECF" transform="translate(224,279)"/>
<path d="M0 0 C0.66 0.33 1.32 0.66 2 1 C0.34665243 4.90791244 -2.26807489 7.78998799 -5 11 C-5.66 11.99 -6.32 12.98 -7 14 C-7.3125 11.3125 -7.3125 11.3125 -7 8 C-4.625 5.3125 -4.625 5.3125 -2 3 C-1.34 2.01 -0.68 1.02 0 0 Z " fill="#5073C9" transform="translate(217,139)"/>
<path d="M0 0 C1.32 0.33 2.64 0.66 4 1 C1.69 4.3 -0.62 7.6 -3 11 C-5 8 -5 8 -5 6 C-3.35 5.34 -1.7 4.68 0 4 C0 2.68 0 1.36 0 0 Z " fill="#4C73CE" transform="translate(367,380)"/>
<path d="M0 0 C4.75 1.875 4.75 1.875 7 3 C7 3.66 7 4.32 7 5 C7.99 5.33 8.98 5.66 10 6 C6.66488837 7.11170388 4.38873993 6.82428809 1 6 C0.67 6 0.34 6 0 6 C0 4.02 0 2.04 0 0 Z " fill="#476BD1" transform="translate(217,189)"/>
<path d="M0 0 C1.17219543 0.78345715 2.33763668 1.57702836 3.5 2.375 C4.47453125 3.03628906 4.47453125 3.03628906 5.46875 3.7109375 C5.9740625 4.13632813 6.479375 4.56171875 7 5 C7 5.66 7 6.32 7 7 C7.66 7 8.32 7 9 7 C8.67 7.66 8.34 8.32 8 9 C7.34 8.67 6.68 8.34 6 8 C6 7.34 6 6.68 6 6 C5.01 6.495 5.01 6.495 4 7 C4 7.99 4 8.98 4 10 C3.01 10 2.02 10 1 10 C1.20625 9.278125 1.4125 8.55625 1.625 7.8125 C2.05952211 4.55358415 1.41680669 2.91695496 0 0 Z " fill="#5474D3" transform="translate(353,250)"/>
<path d="M0 0 C0.99 0 1.98 0 3 0 C3.6509259 1.24735567 4.29551669 2.49801832 4.9375 3.75 C5.29714844 4.44609375 5.65679687 5.1421875 6.02734375 5.859375 C6.95558182 7.90224433 7.53166578 9.81115376 8 12 C7.01 12.495 7.01 12.495 6 13 C4.99759911 11.02204824 3.99813957 9.04260558 3 7.0625 C2.1646875 5.40927734 2.1646875 5.40927734 1.3125 3.72265625 C0 1 0 1 0 0 Z " fill="#5877D0" transform="translate(120,210)"/>
<path d="M0 0 C0 0.33 0 0.66 0 1 C-2.24743045 1.53181175 -4.49807102 2.05007126 -6.75 2.5625 C-8.62945312 2.99755859 -8.62945312 2.99755859 -10.546875 3.44140625 C-13.59473748 3.93444283 -15.17641828 4.07666879 -18 3 C-12.27544841 -0.81636773 -6.70250505 -0.29282789 0 0 Z " fill="#6180D3" transform="translate(301,429)"/>
<path d="M0 0 C4.95 1.32 9.9 2.64 15 4 C15 4.66 15 5.32 15 6 C9.17728663 6.59720137 5.0790596 4.528243 0 2 C0 1.34 0 0.68 0 0 Z " fill="#4F6EC9" transform="translate(226,357)"/>
<path d="M0 0 C2.6875 0.3125 2.6875 0.3125 5 1 C4.34 2.32 3.68 3.64 3 5 C3.66 5 4.32 5 5 5 C5 5.66 5 6.32 5 7 C2.64828869 6.40138258 0.3140622 5.73075648 -2 5 C-2.33 4.34 -2.66 3.68 -3 3 C-1.8125 1.4375 -1.8125 1.4375 0 0 Z " fill="#3259CE" transform="translate(180,259)"/>
<path d="M0 0 C0.66 0 1.32 0 2 0 C1.58578031 4.83256305 -0.46413986 6.82679218 -4 10 C-4.33 9.34 -4.66 8.68 -5 8 C-4.2578125 6.30859375 -4.2578125 6.30859375 -3.125 4.4375 C-2.75632812 3.81746094 -2.38765625 3.19742188 -2.0078125 2.55859375 C-1 1 -1 1 0 0 Z " fill="#5778D1" transform="translate(130,111)"/>
<path d="M0 0 C0.33 1.32 0.66 2.64 1 4 C-1.81814566 5.40907283 -3.17277204 4.50872691 -6.125 3.5625 C-7.03507813 3.27503906 -7.94515625 2.98757813 -8.8828125 2.69140625 C-9.58148438 2.46324219 -10.28015625 2.23507812 -11 2 C-11 1.67 -11 1.34 -11 1 C-7.26513121 0.4254048 -3.78706732 0 0 0 Z " fill="#4E6FD1" transform="translate(252,284)"/>
<path d="M0 0 C3.28788824 3.11016455 5.83735988 6.01618925 8 10 C7.34 10 6.68 10 6 10 C6 9.34 6 8.68 6 8 C4.02 7.34 2.04 6.68 0 6 C-0.38218767 4.34385343 -0.71395102 2.67542976 -1 1 C-0.67 0.67 -0.34 0.34 0 0 Z " fill="#5173D0" transform="translate(363,259)"/>
<path d="M0 0 C0.66 0.33 1.32 0.66 2 1 C1.34 2.65 0.68 4.3 0 6 C-2.64 6 -5.28 6 -8 6 C-5.63404067 3.38499232 -3.13950774 1.61000397 0 0 Z " fill="#496ED2" transform="translate(165,80)"/>
<path d="M0 0 C2.10388569 -0.05402274 4.20816714 -0.09280256 6.3125 -0.125 C8.07013672 -0.15980469 8.07013672 -0.15980469 9.86328125 -0.1953125 C13 0 13 0 16 2 C12.0585998 3.03038433 9.16384848 2.87693282 5.1875 2.0625 C4.21167969 1.86785156 3.23585937 1.67320312 2.23046875 1.47265625 C1.49441406 1.31667969 0.75835937 1.16070312 0 1 C0 0.67 0 0.34 0 0 Z " fill="#5A79CF" transform="translate(205,429)"/>
<path d="M0 0 C0.99 0.33 1.98 0.66 3 1 C4.69262664 5.380916 5.30153263 10.32624426 5 15 C2.49639008 10.37795091 0 5.30049345 0 0 Z " fill="#5F7FD1" transform="translate(115,194)"/>
<path d="M0 0 C0.33 0 0.66 0 1 0 C1 1.98 1 3.96 1 6 C1.66 6 2.32 6 3 6 C3 9.3 3 12.6 3 16 C0.2656934 13.2656934 0.04659335 11.23006445 -0.09765625 7.421875 C-0.08025391 6.09929687 -0.08025391 6.09929687 -0.0625 4.75 C-0.05347656 3.85796875 -0.04445313 2.9659375 -0.03515625 2.046875 C-0.02355469 1.37140625 -0.01195313 0.6959375 0 0 Z " fill="#385EC2" transform="translate(114,180)"/>
<path d="M0 0 C0.66 0 1.32 0 2 0 C2 3.96 2 7.92 2 12 C1.01 11.67 0.02 11.34 -1 11 C-0.67 7.37 -0.34 3.74 0 0 Z " fill="#3662C4" transform="translate(379,151)"/>
<path d="M0 0 C4.43090471 1.20842856 6.98112756 2.51668565 10 6 C8.68 6.33 7.36 6.66 6 7 C6 6.34 6 5.68 6 5 C4.68 4.67 3.36 4.34 2 4 C2 3.34 2 2.68 2 2 C1.01 1.67 0.02 1.34 -1 1 C-0.67 0.67 -0.34 0.34 0 0 Z " fill="#627DD5" transform="translate(323,78)"/>
<path d="M0 0 C0.99 0.33 1.98 0.66 3 1 C3 3 3 3 1.5390625 4.5078125 C0.90742188 5.04148437 0.27578125 5.57515625 -0.375 6.125 C-1.00148438 6.66382813 -1.62796875 7.20265625 -2.2734375 7.7578125 C-4 9 -4 9 -6 9 C-6 8.01 -6 7.02 -6 6 C-5.01 6 -4.02 6 -3 6 C-2.87625 5.195625 -2.7525 4.39125 -2.625 3.5625 C-2.41875 2.716875 -2.2125 1.87125 -2 1 C-1.34 0.67 -0.68 0.34 0 0 Z " fill="#5274CE" transform="translate(355,395)"/>
<path d="M0 0 C2.52588702 2.36292656 3.88820837 3.66462511 5 7 C2.69 6.67 0.38 6.34 -2 6 C-2 3 -2 3 0 0 Z " fill="#5274D7" transform="translate(371,269)"/>
<path d="M0 0 C2.60018816 3.90028225 2.15085514 7.47434569 2 12 C-0.31 12 -2.62 12 -5 12 C-5 11.67 -5 11.34 -5 11 C-3.35 11 -1.7 11 0 11 C-0.185625 9.741875 -0.37125 8.48375 -0.5625 7.1875 C-1.00732761 4.17255732 -0.99843846 2.99531539 0 0 Z " fill="#6987D4" transform="translate(381,160)"/>
<path d="M0 0 C0.66 0.66 1.32 1.32 2 2 C1.625 4.625 1.625 4.625 1 7 C-0.98 7.66 -2.96 8.32 -5 9 C-5 8.34 -5 7.68 -5 7 C-4.34 7 -3.68 7 -3 7 C-2.690625 6.21625 -2.38125 5.4325 -2.0625 4.625 C-1 2 -1 2 0 0 Z " fill="#5473D5" transform="translate(290,343)"/>
<path d="M0 0 C6.75 -0.125 6.75 -0.125 9 1 C8.67 2.65 8.34 4.3 8 6 C7.34 6 6.68 6 6 6 C6 5.34 6 4.68 6 4 C5.195625 3.71125 4.39125 3.4225 3.5625 3.125 C1 2 1 2 0 0 Z " fill="#4871D5" transform="translate(268,140)"/>
<path d="M0 0 C5.625 -0.25 5.625 -0.25 9 2 C9 2.99 9 3.98 9 5 C5.51694958 4.35499066 2.93797836 2.95865224 0 1 C0 0.67 0 0.34 0 0 Z " fill="#5674CF" transform="translate(262,292)"/>
<path d="M0 0 C2 3 2 3 2 6 C2.66 6 3.32 6 4 6 C4.66 7.65 5.32 9.3 6 11 C4.35 10.67 2.7 10.34 1 10 C0.67 6.7 0.34 3.4 0 0 Z " fill="#5B84D0" transform="translate(209,175)"/>
<path d="M0 0 C2.25 2.6875 2.25 2.6875 2.25 4.6875 C1.59 4.6875 0.93 4.6875 0.25 4.6875 C0.25 4.0275 0.25 3.3675 0.25 2.6875 C-0.719375 2.39875 -1.68875 2.11 -2.6875 1.8125 C-5.75 0.6875 -5.75 0.6875 -6.75 -1.3125 C-3.4148903 -2.91829356 -2.92497458 -2.45963772 0 0 Z " fill="#506FCC" transform="translate(277.75,298.3125)"/>
<path d="M0 0 C2.31 0.66 4.62 1.32 7 2 C7 2.33 7 2.66 7 3 C5.56465159 3.2226746 4.12654475 3.42761906 2.6875 3.625 C1.88699219 3.74101562 1.08648437 3.85703125 0.26171875 3.9765625 C-2 4 -2 4 -5 2 C-3.35 2 -1.7 2 0 2 C0 1.34 0 0.68 0 0 Z " fill="#3D67D1" transform="translate(241,202)"/>
<path d="M0 0 C0.33 0.66 0.66 1.32 1 2 C3.02463255 2.65213292 3.02463255 2.65213292 5 3 C4.67 4.65 4.34 6.3 4 8 C2.68 8 1.36 8 0 8 C0 5.36 0 2.72 0 0 Z " fill="#325BD1" transform="translate(114,151)"/>
<path d="M0 0 C4.28806873 0.47645208 6.26647487 1.65902484 9 5 C9 5.66 9 6.32 9 7 C5.18315774 5.44499019 2.80804268 2.96404505 0 0 Z " fill="#627FCD" transform="translate(144,397)"/>
<path d="M0 0 C0.66 0 1.32 0 2 0 C1.67 3.96 1.34 7.92 1 12 C0.67 12 0.34 12 0 12 C-0.19573608 10.56359829 -0.38127816 9.12580496 -0.5625 7.6875 C-0.66691406 6.88699219 -0.77132813 6.08648437 -0.87890625 5.26171875 C-1 3 -1 3 0 0 Z " fill="#6886D9" transform="translate(384,338)"/>
<path d="M0 0 C1.41750563 0.11509661 2.83401169 0.24253658 4.25 0.375 C5.03890625 0.44460938 5.8278125 0.51421875 6.640625 0.5859375 C9.085877 1.01507113 10.84836903 1.78600638 13 3 C9.57056481 4.18771723 7.62215325 3.80226223 4.25 2.5625 C3.45078125 2.27503906 2.6515625 1.98757813 1.828125 1.69140625 C1.22484375 1.46324219 0.6215625 1.23507812 0 1 C0 0.67 0 0.34 0 0 Z " fill="#6280D4" transform="translate(195,270)"/>
<path d="M0 0 C4.19469571 0.59924224 8.00999834 1.57499941 12 3 C10.375 4.125 10.375 4.125 8 5 C4.75 4.125 4.75 4.125 2 3 C2 2.34 2 1.68 2 1 C1.34 0.67 0.68 0.34 0 0 Z " fill="#6384D7" transform="translate(271,213)"/>
<path d="M0 0 C4.75 1.875 4.75 1.875 7 3 C7 4.98 7 6.96 7 9 C4.61327331 6.03716687 2.2646629 3.05729491 0 0 Z " fill="#5D76D1" transform="translate(284,307)"/>
<path d="M0 0 C2.475 0.495 2.475 0.495 5 1 C5.66 3.64 6.32 6.28 7 9 C4.03595495 6.19195732 1.55500981 3.81684226 0 0 Z " fill="#5B7ACF" transform="translate(127,223)"/>
<path d="M0 0 C-2.0625 2.0625 -2.0625 2.0625 -5 4 C-8.8125 3.75 -8.8125 3.75 -12 3 C-12 2.67 -12 2.34 -12 2 C-10.37787941 1.47026689 -8.75218416 0.95146893 -7.125 0.4375 C-6.22007812 0.14746094 -5.31515625 -0.14257812 -4.3828125 -0.44140625 C-2 -1 -2 -1 0 0 Z " fill="#6684D3" transform="translate(276,359)"/>
<path d="M0 0 C2.97 0.33 5.94 0.66 9 1 C9 1.99 9 2.98 9 4 C4.545 3.01 4.545 3.01 0 2 C0 1.34 0 0.68 0 0 Z " fill="#5B77D2" transform="translate(209,274)"/>
<path d="M0 0 C4.41889613 1.35021826 6.34345343 3.26115668 9 7 C6 7 6 7 3.375 4.625 C1 2 1 2 0 0 Z " fill="#607BD0" transform="translate(139,237)"/>
<path d="M0 0 C3.33537489 1.11179163 4.63707344 2.47411298 7 5 C6.67 5.66 6.34 6.32 6 7 C4.35 6.67 2.7 6.34 1 6 C0.67 4.02 0.34 2.04 0 0 Z " fill="#5E7ED7" transform="translate(350,97)"/>
<path d="M0 0 C-1 3 -1 3 -4.0625 4.6875 C-5.031875 5.120625 -6.00125 5.55375 -7 6 C-7 5.01 -7 4.02 -7 3 C-6.01 3 -5.02 3 -4 3 C-4 2.34 -4 1.68 -4 1 C-2 0 -2 0 0 0 Z " fill="#6D8BD1" transform="translate(346,406)"/>
<path d="M0 0 C4 4.625 4 4.625 4 8 C3.01 7.67 2.02 7.34 1 7 C0.67 4.69 0.34 2.38 0 0 Z " fill="#6083D5" transform="translate(214,343)"/>
</svg>
