<?xml version="1.0" encoding="UTF-8"?>
<svg version="1.1" xmlns="http://www.w3.org/2000/svg" width="1080" height="1080">
<path d="M0 0 C356.4 0 712.8 0 1080 0 C1080 356.4 1080 712.8 1080 1080 C723.6 1080 367.2 1080 0 1080 C0 723.6 0 367.2 0 0 Z " fill="#FEFEFE" transform="translate(0,0)"/>
<path d="M0 0 C3.13443546 2.79153112 5.80358928 6.07098437 8.53515625 9.2578125 C8.86515625 2.9878125 9.19515625 -3.2821875 9.53515625 -9.7421875 C24.38515625 -9.7421875 39.23515625 -9.7421875 54.53515625 -9.7421875 C54.53515625 38.7678125 54.53515625 87.2778125 54.53515625 137.2578125 C39.68515625 137.2578125 24.83515625 137.2578125 9.53515625 137.2578125 C9.20515625 130.9878125 8.87515625 124.7178125 8.53515625 118.2578125 C7.44203125 119.5984375 6.34890625 120.9390625 5.22265625 122.3203125 C-3.65953776 132.26586777 -16.1598268 138.4810393 -29.51147461 139.3984375 C-47.10921378 140.16614343 -62.1383584 136.78015487 -75.71484375 124.8828125 C-77.31361984 123.35716655 -78.89817227 121.81640835 -80.46484375 120.2578125 C-81.40457031 119.37029297 -81.40457031 119.37029297 -82.36328125 118.46484375 C-97.39380926 103.06025283 -100.77734375 80.48256358 -100.77734375 59.96899414 C-100.53073629 40.68737338 -94.54724155 22.76023962 -81.46484375 8.2578125 C-80.95824219 7.6596875 -80.45164062 7.0615625 -79.9296875 6.4453125 C-59.74606189 -15.77155304 -23.30049556 -17.21427647 0 0 Z " fill="#3C83F6" transform="translate(476.46484375,494.7421875)"/>
<path d="M0 0 C8.25441318 7.27792068 14.31560066 19.144982 16 30 C16 32.64 16 35.28 16 38 C-0.17 38 -16.34 38 -33 38 C-33.99 34.04 -33.99 34.04 -35 30 C-36.51553153 27.69833325 -36.51553153 27.69833325 -38 26 C-38 25.34 -38 24.68 -38 24 C-39.65984798 23.31653318 -41.32836805 22.65411685 -43 22 C-43.845625 21.62875 -44.69125 21.2575 -45.5625 20.875 C-52.36957782 19.14228928 -59.40799464 18.5629074 -65.625 22.25 C-68.40467414 24.15003043 -69.83330791 25.82682296 -71 29 C-71.35335815 31.87730058 -71.35335815 31.87730058 -71.3125 34.9375 C-71.32925781 35.95714844 -71.34601563 36.97679687 -71.36328125 38.02734375 C-70.86608125 42.09582975 -69.47812736 44.74498621 -66.34375 47.40625 C-56.81144742 53.06100577 -46.68646778 56.93815889 -36.26107788 60.62097168 C5.85659641 75.56805942 5.85659641 75.56805942 16.23046875 96.48046875 C18.32842081 102.67582954 18.2887662 109.14619235 18.375 115.625 C18.38926025 116.50792725 18.40352051 117.39085449 18.41821289 118.30053711 C18.37217068 124.38549877 17.26706981 129.36729842 15 135 C14.5978125 136.02867187 14.195625 137.05734375 13.78125 138.1171875 C7.40357286 151.84474865 -4.05073168 161.2042072 -17.75 167.25 C-40.86800584 175.61720336 -67.40223332 174.12384865 -89.625 163.75 C-103.54557069 156.09698484 -114.26896487 145.42372146 -119 130 C-120.28295416 124.7612705 -120 120.67217507 -120 115 C-104.16 115 -88.32 115 -72 115 C-71.34 117.97 -70.68 120.94 -70 124 C-67.51052599 129.39386036 -64.03899563 131.68902405 -58.78125 134.0859375 C-51.80332503 136.3792443 -44.74095216 135.55795861 -37.9453125 132.98828125 C-33.84035879 130.90283288 -31.44120901 128.32362702 -30 124 C-29.3605812 118.46376632 -28.70538986 112.76105901 -32.25 108.125 C-42.19285923 99.06440697 -56.94731099 95.79132753 -69.44311523 91.75268555 C-87.24109267 85.97344221 -104.97344235 78.97285621 -115 62 C-121.02495419 49.36890633 -122.2606814 34.46483068 -118.375 20.9375 C-112.89642415 5.80894143 -103.30603115 -3.52747662 -88.94140625 -10.48046875 C-60.53927795 -22.81820856 -24.15848574 -19.79701017 0 0 Z " fill="#3C82F6" transform="translate(232,462)"/>
<path d="M0 0 C16.5 0 33 0 50 0 C51.93939453 5.23810547 51.93939453 5.23810547 53.91796875 10.58203125 C63.59856899 36.72634367 73.28406613 62.86879547 83 89 C84.69598232 86.45602651 85.64556513 84.5385287 86.6730957 81.71679688 C86.99179626 80.84780258 87.31049683 79.97880829 87.63885498 79.08348083 C87.98104065 78.13811966 88.32322632 77.19275848 88.67578125 76.21875 C89.03770569 75.22895645 89.39963013 74.2391629 89.77252197 73.21937561 C90.55117297 71.08862169 91.32803556 68.95721354 92.103302 66.82522583 C93.72151072 62.37524374 95.34821202 57.92838317 96.97447205 53.4813385 C97.79528449 51.23649736 98.61564601 48.9914913 99.43556213 46.74632263 C102.8388973 37.42866409 106.26906557 28.12119278 109.72323608 18.82226562 C110.55074042 16.59416333 111.37658371 14.36544989 112.20239258 12.13671875 C112.69859392 10.80073053 113.1949234 9.46478989 113.69140625 8.12890625 C114.11623291 6.98494385 114.54105957 5.84098145 114.97875977 4.66235352 C116 2 116 2 117 0 C132.84 0 148.68 0 165 0 C164.13853833 4.30730834 162.92074121 7.91430161 161.2109375 11.90234375 C160.92042007 12.59034561 160.62990265 13.27834747 160.33058167 13.98719788 C159.34998031 16.30594029 158.36250875 18.62169173 157.375 20.9375 C156.66312841 22.61638198 155.95163236 24.29542324 155.24047852 25.97460938 C153.26020778 30.64621237 151.27336112 35.31499234 149.28485107 39.98309326 C147.97552135 43.05747733 146.66750788 46.13241837 145.35986328 49.20751953 C140.07721932 61.62957424 134.7867206 74.0482678 129.49182129 86.46510315 C124.63295729 97.85958485 119.77892013 109.25611946 114.92550659 120.65292358 C113.50599613 123.98592114 112.0861773 127.31878717 110.66625977 130.65161133 C106.18288265 141.17541268 101.70144805 151.7000313 97.22613525 162.2272644 C95.11760925 167.18708242 93.0078867 172.14639132 90.89819336 177.10571289 C89.89493305 179.46487814 88.89215393 181.82424808 87.88989258 184.18383789 C86.49813483 187.46032156 85.10470383 190.7360891 83.7109375 194.01171875 C83.30672577 194.96455246 82.90251404 195.91738617 82.48605347 196.89909363 C79.75287009 203.31652736 76.88838599 209.64555082 74 216 C58.16 216 42.32 216 26 216 C27.97702797 210.06891608 29.95567234 204.58074457 32.58984375 198.9765625 C33.10148323 197.87234451 33.10148323 197.87234451 33.62345886 196.74581909 C34.35000033 195.17852291 35.0785223 193.61214349 35.80889893 192.04663086 C37.33830887 188.76498741 38.8535343 185.47686482 40.36956787 182.18902588 C42.90265662 176.69598373 45.4408162 171.20529566 47.98583984 165.71777344 C49.71488175 161.98569723 51.42110242 158.24362072 53.125 154.5 C53.63925537 153.39865723 54.15351074 152.29731445 54.68334961 151.16259766 C55.14104736 150.14987793 55.59874512 149.1371582 56.0703125 148.09375 C56.47008301 147.22427734 56.86985352 146.35480469 57.28173828 145.45898438 C58.93279113 139.80656958 55.62381646 134.39788157 53.4140625 129.25 C53.0456575 128.38120209 52.6772525 127.51240417 52.29768372 126.61727905 C51.07776266 123.74300138 49.85130879 120.87155745 48.625 118 C47.76389733 115.97368542 46.90330989 113.94715181 46.04321289 111.92041016 C44.25399846 107.70550725 42.46256285 103.49155919 40.66943359 99.27832031 C34.21333465 84.102504 27.81350025 68.90274861 21.40673828 53.70605469 C19.75082377 49.77879061 18.09266552 45.85248273 16.43310547 41.92675781 C14.31284919 36.91059822 12.19740756 31.89243252 10.0852356 26.87286377 C9.2851821 24.97369248 8.48351276 23.07520101 7.68014526 21.1774292 C6.5714482 18.55760505 5.46862084 15.9353846 4.3671875 13.3125 C4.03899521 12.54072418 3.71080292 11.76894836 3.37266541 10.9737854 C3.07292313 10.25669403 2.77318085 9.53960266 2.46435547 8.80078125 C2.20411591 8.18372314 1.94387634 7.56666504 1.67575073 6.9309082 C1 5 1 5 0 0 Z " fill="#3C82F6" transform="translate(814,485)"/>
<path d="M0 0 C0 12.87 0 25.74 0 39 C-4.62 39.33 -9.24 39.66 -14 40 C-18.348768 41.8426983 -20.05195781 43.56745436 -21.8125 47.8125 C-23.09335382 51.57743395 -23.41673433 54.9171403 -24 59 C-16.08 59 -8.16 59 0 59 C0 71.54 0 84.08 0 97 C-7.92 97 -15.84 97 -24 97 C-24 132.97 -24 168.94 -24 206 C-38.85 206 -53.7 206 -69 206 C-69 170.03 -69 134.06 -69 97 C-74.28 97 -79.56 97 -85 97 C-85 84.46 -85 71.92 -85 59 C-79.72 59 -74.44 59 -69 59 C-69.0825 57.185 -69.165 55.37 -69.25 53.5 C-69.2044985 39.5613749 -65.26360225 26.40667909 -56.0390625 15.73046875 C-40.30411737 0.43423027 -21.09838482 0 0 0 Z " fill="#3C83F6" transform="translate(731,426)"/>
<path d="M0 0 C0 12.54 0 25.08 0 38 C-4.29 38.66 -8.58 39.32 -13 40 C-18.78472933 41.23047652 -18.78472933 41.23047652 -20.20703125 43.8828125 C-20.40683594 44.62273437 -20.60664062 45.36265625 -20.8125 46.125 C-21.02519531 46.84945312 -21.23789062 47.57390625 -21.45703125 48.3203125 C-22.17132495 51.84553177 -22.55386469 55.43091753 -23 59 C-15.08 59 -7.16 59 1 59 C1 71.54 1 84.08 1 97 C-6.92 97 -14.84 97 -23 97 C-23 132.97 -23 168.94 -23 206 C-37.85 206 -52.7 206 -68 206 C-68 170.03 -68 134.06 -68 97 C-73.61 97 -79.22 97 -85 97 C-85 84.46 -85 71.92 -85 59 C-79.39 59 -73.78 59 -68 59 C-68.061875 57.164375 -68.12375 55.32875 -68.1875 53.4375 C-68.14009791 38.91666118 -64.90792957 26.27162148 -55.125 15.3125 C-47.25091461 7.89217546 -35.78416451 2.25744211 -25 1 C-24.34773437 0.89300781 -23.69546875 0.78601563 -23.0234375 0.67578125 C-15.32870242 -0.4337592 -7.85888151 0 0 0 Z " fill="#3C83F6" transform="translate(636,426)"/>
<path d="M0 0 C14.85 0 29.7 0 45 0 C45 11.88 45 23.76 45 36 C54.9 36 64.8 36 75 36 C75 48.54 75 61.08 75 74 C65.1 74 55.2 74 45 74 C45.0676154 82.12084224 45.13799384 90.24080071 45.2355423 98.36119843 C45.28016153 102.14287794 45.31960519 105.92444771 45.34643555 109.70629883 C45.37249018 113.35047178 45.41290709 116.99423095 45.46318626 120.63814735 C45.47984053 122.02671464 45.4913638 123.41535348 45.49761391 124.80400658 C45.50726972 126.7525102 45.53704261 128.70088242 45.56762695 130.64916992 C45.58428154 132.31129768 45.58428154 132.31129768 45.60127258 134.00700378 C46.05127616 137.3848979 46.97909588 139.27799966 49 142 C52.35130542 143.81944778 55.30416799 144.27500005 59.08203125 144.4140625 C59.9222583 144.44967285 60.76248535 144.4852832 61.62817383 144.52197266 C62.67900146 144.55597168 63.7298291 144.5899707 64.8125 144.625 C69.8553125 144.810625 69.8553125 144.810625 75 145 C75 157.54 75 170.08 75 183 C69.51375 183.0825 64.0275 183.165 58.375 183.25 C55.82531494 183.30462402 55.82531494 183.30462402 53.22412109 183.36035156 C39.37083367 183.53258912 27.56759136 181.14015689 16 173 C14.9275 172.278125 13.855 171.55625 12.75 170.8125 C6.35642018 164.27361155 3.08395216 155.78558247 1 147 C0.82614273 146.26824051 0.65228546 145.53648102 0.47315979 144.782547 C-0.07837208 141.53911131 -0.11963083 138.48101861 -0.11352539 135.19018555 C-0.11367142 134.52621262 -0.11381744 133.86223969 -0.1139679 133.17814636 C-0.11327483 130.99763651 -0.10551099 128.81721356 -0.09765625 126.63671875 C-0.09578992 125.1192886 -0.09436703 123.60185785 -0.09336853 122.08442688 C-0.08956032 118.10108765 -0.07974459 114.1177852 -0.06866455 110.13446045 C-0.05841389 106.06555682 -0.05386309 101.99664721 -0.04882812 97.92773438 C-0.03812074 89.95180421 -0.02053774 81.97591092 0 74 C-5.94 74 -11.88 74 -18 74 C-18 61.46 -18 48.92 -18 36 C-12.06 36 -6.12 36 0 36 C0 24.12 0 12.24 0 0 Z " fill="#3D83F6" transform="translate(285,449)"/>
<path d="M0 0 C14.85 0 29.7 0 45 0 C45 64.35 45 128.7 45 195 C30.15 195 15.3 195 0 195 C0 130.65 0 66.3 0 0 Z " fill="#3D83F6" transform="translate(752,437)"/>
<path d="M0 0 C7.80522344 4.56672729 13.19230918 11.1507433 15.53515625 19.9296875 C17.47558254 32.40812117 17.7576858 46.00378806 10.3125 56.67578125 C4.90592911 63.29100671 -1.42312567 67.85639546 -9.95703125 69.1953125 C-21.07445377 69.75118363 -29.18082827 67.16553366 -37.64453125 59.8828125 C-46.82603345 49.21241805 -47.92130396 38.23035895 -47.20849609 24.59179688 C-46.42091655 17.0860874 -42.93902372 10.73185351 -37.95703125 5.1953125 C-35.265625 3.2109375 -35.265625 3.2109375 -32.39453125 1.4453125 C-31.44449219 0.85234375 -30.49445313 0.259375 -29.515625 -0.3515625 C-21.19599813 -5.07660249 -8.44625976 -4.0462819 0 0 Z " fill="#FDFEFE" transform="translate(468.95703125,525.8046875)"/>
</svg>
